<?xml version="1.0" standalone="no"?>
<!DOCTYPE svg PUBLIC "-//W3C//DTD SVG 20010904//EN"
 "http://www.w3.org/TR/2001/REC-SVG-20010904/DTD/svg10.dtd">
<svg version="1.0" xmlns="http://www.w3.org/2000/svg"
 width="1800.000000pt" height="1200.000000pt" viewBox="0 0 1800.000000 1200.000000"
 preserveAspectRatio="xMidYMid meet">

<g transform="translate(0.000000,1200.000000) scale(0.100000,-0.100000)"
fill="#000000" stroke="none">
<path d="M0 6000 l0 -6000 9000 0 9000 0 0 1041 c0 639 -4 1038 -9 1034 -17
-10 -21 12 -6 25 13 11 15 590 15 4956 l0 4944 -9000 0 -9000 0 0 -6000z
m12290 4834 c37 -20 3 -16 -60 7 l-55 20 45 -7 c25 -3 56 -12 70 -20z m150
-44 c13 -9 13 -10 0 -10 -8 0 -22 5 -30 10 -13 9 -13 10 0 10 8 0 22 -5 30
-10z m1640 -300 c0 -6 -8 -13 -17 -16 -10 -3 -26 -10 -36 -15 -10 -6 -30 -15
-45 -20 l-27 -10 24 25 c14 14 32 26 42 26 10 0 21 5 24 10 8 13 35 13 35 0z
m-140 -54 c0 -2 -7 -6 -15 -10 -8 -3 -15 -1 -15 4 0 6 7 10 15 10 8 0 15 -2
15 -4z m1501 -613 c38 -62 59 -113 59 -142 l-1 -26 -19 24 c-11 13 -20 33 -20
46 0 12 -7 28 -16 35 -12 11 -54 85 -54 97 0 2 6 3 14 3 8 0 24 -17 37 -37z
m-1957 -390 c3 -10 8 -40 11 -68 12 -91 51 -186 136 -329 14 -24 18 -37 9 -34
-20 6 -136 237 -149 299 -7 30 -17 70 -22 90 -5 20 -9 41 -9 48 0 18 18 13 24
-6z m2022 -348 c-19 -36 -21 -16 -4 40 11 35 13 37 16 15 1 -14 -4 -39 -12
-55z m271 -43 c-8 -10 -17 -26 -21 -36 -3 -10 -9 -16 -12 -13 -9 9 27 77 38
71 5 -4 3 -13 -5 -22z m-2075 -117 c9 -17 9 -18 -3 -8 -8 6 -22 26 -32 45
l-19 33 21 -25 c12 -14 27 -34 33 -45z m2014 0 c-19 -38 -36 -54 -36 -31 0 22
43 91 48 77 2 -6 -3 -27 -12 -46z m-256 15 c0 -5 -5 -10 -11 -10 -5 0 -7 5 -4
10 3 6 8 10 11 10 2 0 4 -4 4 -10z m-102 -139 c-7 -11 -16 -17 -20 -14 -10 5
10 33 23 33 5 0 4 -9 -3 -19z m316 -2 c-3 -5 -10 -7 -15 -3 -5 3 -7 10 -3 15
3 5 10 7 15 3 5 -3 7 -10 3 -15z m-1808 -27 c-4 -3 -14 2 -24 12 -16 18 -16
18 6 6 13 -6 21 -14 18 -18z m1394 -72 c-6 -11 -15 -20 -20 -20 -14 0 -12 27
3 33 23 10 28 7 17 -13z m-65 -49 c-3 -6 -14 -11 -23 -11 -15 1 -15 2 2 15 21
16 32 13 21 -4z m450 -21 c7 -21 0 -40 -16 -40 -5 0 -9 14 -9 30 0 34 15 40
25 10z m-539 -35 c-23 -17 -36 -19 -36 -6 0 5 8 12 18 14 32 9 37 6 18 -8z
m-121 -54 c-3 -6 -16 -11 -28 -11 -21 1 -21 1 3 15 27 14 36 13 25 -4z m-700
-9 c-3 -3 -11 0 -18 7 -9 10 -8 11 6 5 10 -3 15 -9 12 -12z m-8355 -53 c0 -5
-4 -9 -10 -9 -5 0 -10 7 -10 16 0 8 5 12 10 9 6 -3 10 -10 10 -16z m8627 15
c-3 -3 -12 -4 -19 -1 -8 3 -5 6 6 6 11 1 17 -2 13 -5z m143 -3 c0 -11 -26 -22
-34 -14 -12 12 -5 23 14 23 11 0 20 -4 20 -9z m-755 -51 c13 -6 15 -9 5 -9 -8
0 -22 4 -30 9 -18 12 -2 12 25 0z m-610 -10 c-3 -5 -13 -10 -21 -10 -8 0 -12
5 -9 10 3 6 13 10 21 10 8 0 12 -4 9 -10z m2401 -67 c-4 -4 -11 -1 -16 7 -16
25 -11 35 7 17 9 -9 13 -20 9 -24z m-2535 7 c-22 -19 -41 -26 -41 -15 0 5 51
34 60 34 3 0 -6 -9 -19 -19z m-73 -42 c-5 -16 -48 -24 -48 -10 0 11 17 20 38
21 8 1 12 -5 10 -11z m2626 -19 c-8 -13 -24 -1 -24 18 0 13 3 13 15 3 8 -7 12
-16 9 -21z m-2714 -57 c0 -5 -11 -19 -24 -31 -20 -18 -24 -20 -29 -7 -4 9 1
22 9 31 16 16 44 20 44 7z m2405 -32 c3 -5 1 -10 -4 -10 -6 0 -11 5 -11 10 0
6 2 10 4 10 3 0 8 -4 11 -10z m-2518 -107 c-30 -44 -58 -94 -62 -111 -9 -42
-25 -51 -25 -13 0 16 5 33 11 37 6 3 18 23 27 44 16 35 93 131 100 125 2 -2
-21 -39 -51 -82z m2193 63 c0 -3 -4 -8 -10 -11 -5 -3 -10 -1 -10 4 0 6 5 11
10 11 6 0 10 -2 10 -4z m775 -36 c3 -5 2 -10 -4 -10 -5 0 -13 5 -16 10 -3 6
-2 10 4 10 5 0 13 -4 16 -10z m-465 -50 c0 -5 -4 -10 -9 -10 -6 0 -13 5 -16
10 -3 6 1 10 9 10 9 0 16 -4 16 -10z m-1010 -134 c-14 -14 -31 11 -22 32 4 12
7 12 19 -4 9 -12 10 -21 3 -28z m420 -16 c0 -5 -4 -10 -10 -10 -5 0 -10 5 -10
10 0 6 5 10 10 10 6 0 10 -4 10 -10z m-1604 -28 c-18 -16 -18 -16 -6 6 6 13
14 21 18 18 3 -4 -2 -14 -12 -24z m-400 1 c-15 -49 -26 -112 -26 -150 0 -24
-4 -43 -10 -43 -13 0 -5 135 10 178 12 33 36 46 26 15z m549 -38 c-25 -82
-194 -391 -224 -409 -7 -5 -11 3 -11 18 0 14 4 26 8 26 5 0 14 17 20 39 7 21
19 44 27 51 8 7 15 19 15 26 0 8 4 14 9 14 5 0 16 17 24 38 8 21 22 44 31 51
9 8 16 23 16 36 0 12 7 37 17 56 18 37 73 112 79 106 2 -1 -3 -25 -11 -52z
m1055 22 c0 -5 -4 -5 -10 -2 -5 3 -10 14 -10 23 0 15 2 15 10 2 5 -8 10 -19
10 -23z m634 -83 c9 -22 -3 -32 -14 -14 -12 19 -12 30 -1 30 5 0 12 -7 15 -16z
m-194 -15 c0 -5 -7 -9 -15 -9 -15 0 -20 12 -9 23 8 8 24 -1 24 -14z m573 -24
c-7 -21 -13 -19 -13 6 0 11 4 18 10 14 5 -3 7 -12 3 -20z m111 -21 c12 -17 15
-29 9 -35 -6 -6 -8 -32 -5 -59 4 -42 2 -50 -12 -50 -9 0 -19 7 -22 15 -9 22
-23 9 -17 -15 7 -26 -5 -25 -33 1 -25 23 -22 43 8 72 20 20 38 15 38 -11 0
-11 3 -13 10 -6 7 7 5 21 -6 44 -15 29 -18 31 -29 16 -7 -9 -19 -14 -29 -10
-21 8 -20 19 1 44 24 28 64 25 87 -6z m-463 -37 c-13 -13 -26 -3 -16 12 3 6
11 8 17 5 6 -4 6 -10 -1 -17z m777 -50 c2 -10 -3 -17 -12 -17 -10 0 -16 9 -16
21 0 24 23 21 28 -4z m-3048 -21 c0 -13 2 -45 5 -72 l5 -49 -14 50 c-7 28 -14
55 -16 60 -5 19 0 35 10 35 6 0 10 -11 10 -24z m4390 4 c-6 -11 -15 -18 -20
-15 -13 8 0 35 16 35 12 0 12 -4 4 -20z m-2110 -38 c0 -13 -12 -22 -22 -16
-10 6 -1 24 13 24 5 0 9 -4 9 -8z m2280 -12 c0 -5 -4 -10 -10 -10 -5 0 -10 5
-10 10 0 6 5 10 10 10 6 0 10 -4 10 -10z m-2215 -40 c3 -5 -3 -10 -14 -10 -12
0 -21 5 -21 10 0 6 6 10 14 10 8 0 18 -4 21 -10z m-2895 -10 c0 -5 -4 -10 -10
-10 -5 0 -10 5 -10 10 0 6 5 10 10 10 6 0 10 -4 10 -10z m2780 0 c0 -5 -7 -10
-15 -10 -8 0 -15 5 -15 10 0 6 7 10 15 10 8 0 15 -4 15 -10z m1610 6 c0 -3 -4
-8 -10 -11 -5 -3 -10 -1 -10 4 0 6 5 11 10 11 6 0 10 -2 10 -4z m-3823 -58
c-3 -8 -6 -5 -6 6 -1 11 2 17 5 13 3 -3 4 -12 1 -19z m3733 12 c0 -5 -4 -10
-9 -10 -6 0 -13 5 -16 10 -3 6 1 10 9 10 9 0 16 -4 16 -10z m-112 -48 c2 -7
-4 -15 -13 -18 -19 -8 -51 19 -41 35 8 12 48 -1 54 -17z m-3473 -224 c25 -25
45 -49 45 -52 0 -12 -45 16 -68 43 -26 30 -122 221 -122 242 0 8 23 -31 50
-87 31 -63 67 -118 95 -146z m2823 223 c3 -8 -1 -12 -9 -9 -7 2 -15 10 -17 17
-3 8 1 12 9 9 7 -2 15 -10 17 -17z m1202 -11 c0 -5 -4 -10 -9 -10 -6 0 -13 5
-16 10 -3 6 1 10 9 10 9 0 16 -4 16 -10z m-1812 -12 c18 -18 16 -59 -3 -52 -8
4 -15 2 -15 -4 0 -6 6 -13 13 -15 6 -3 3 -6 -8 -6 -34 -1 -45 17 -29 47 7 14
11 29 8 34 -8 13 21 9 34 -4z m-2105 -57 c-4 -3 -24 -32 -43 -63 -19 -32 -35
-56 -36 -55 -2 2 2 19 9 38 14 40 70 111 76 96 2 -5 -1 -12 -6 -16z m3847 8
c0 -5 -4 -9 -10 -9 -5 0 -10 7 -10 16 0 8 5 12 10 9 6 -3 10 -10 10 -16z
m-4679 -61 c11 -21 11 -22 -4 -9 -10 7 -17 17 -17 22 0 15 9 10 21 -13z m2944
-8 c-3 -5 -12 -7 -20 -3 -9 3 -15 -1 -15 -11 0 -20 -14 -21 -29 -2 -10 11 -8
15 6 19 33 9 64 7 58 -3z m53 -9 c3 -8 -1 -12 -9 -9 -7 2 -15 10 -17 17 -3 8
1 12 9 9 7 -2 15 -10 17 -17z m1602 -1 c0 -5 -5 -10 -11 -10 -5 0 -7 5 -4 10
3 6 8 10 11 10 2 0 4 -4 4 -10z m-1627 -27 c-7 -2 -19 -2 -25 0 -7 3 -2 5 12
5 14 0 19 -2 13 -5z m-9621 -263 c24 -108 175 -797 293 -1335 75 -341 138
-628 141 -637 4 -14 17 -18 60 -18 41 0 54 -4 54 -15 0 -13 -33 -15 -235 -15
-202 0 -235 2 -235 15 0 12 13 15 61 15 l61 0 -7 28 c-4 15 -29 131 -56 257
-27 127 -51 240 -54 253 l-5 22 -208 -2 -207 -3 -52 -245 c-28 -135 -54 -260
-58 -277 l-6 -33 56 0 c42 0 55 -3 55 -15 0 -13 -22 -15 -140 -15 -112 0 -140
3 -140 14 0 8 16 16 42 20 29 5 52 18 78 44 35 36 38 44 74 217 20 99 51 243
67 320 30 136 149 704 250 1190 28 131 53 243 56 248 3 4 14 7 26 5 15 -2 24
-13 29 -38z m1201 29 c88 -14 142 -38 202 -91 l46 -41 27 20 c15 11 31 36 36
56 5 21 15 37 23 37 10 0 13 -44 13 -220 0 -181 -2 -220 -14 -220 -9 0 -16 18
-21 56 -26 214 -162 366 -325 366 -166 0 -259 -163 -229 -402 21 -174 74 -260
288 -470 183 -179 238 -245 285 -339 52 -103 70 -179 70 -306 0 -122 -16 -199
-61 -293 -32 -67 -121 -160 -180 -191 -65 -33 -169 -47 -255 -34 -97 14 -162
46 -226 111 -51 52 -54 53 -72 37 -11 -10 -22 -34 -26 -54 -10 -59 -15 -71
-30 -71 -12 0 -14 37 -14 230 0 196 2 230 15 230 8 0 16 -10 19 -22 2 -13 9
-52 16 -87 32 -178 171 -325 320 -338 260 -24 380 368 202 662 -22 36 -116
141 -237 265 -213 218 -258 280 -296 400 -104 333 34 666 293 709 29 5 54 9
56 10 2 0 36 -4 75 -10z m9797 -8 c0 -5 -6 -11 -12 -13 -10 -4 -14 -56 -16
-206 -2 -111 -7 -202 -11 -202 -4 0 -12 37 -18 83 -16 115 -47 193 -98 245
l-42 42 -117 0 -116 0 0 -980 0 -980 60 0 c47 0 60 -3 60 -15 0 -13 -33 -15
-235 -15 -202 0 -235 2 -235 15 0 12 13 15 60 15 l60 0 0 980 0 980 -115 0
-115 0 -39 -35 c-48 -44 -85 -132 -100 -239 -6 -43 -11 -82 -11 -87 0 -5 -7
-9 -15 -9 -13 0 -15 27 -15 188 0 103 4 192 8 198 12 19 125 24 487 22 193 -1
395 -2 449 -3 71 0 101 4 104 13 4 14 22 17 22 3z m-3229 -21 c99 0 159 -4
159 -10 0 -6 -26 -10 -57 -10 l-58 0 0 -853 c0 -939 -3 -897 63 -1026 39 -78
88 -114 160 -119 132 -9 249 95 305 273 l22 70 -2 825 -2 825 -56 3 c-30 2
-55 7 -55 12 0 6 56 10 135 10 108 0 135 -3 135 -14 0 -8 -16 -15 -41 -19 -76
-10 -84 -28 -84 -180 0 -72 1 -148 2 -167 1 -19 -1 -325 -5 -680 -7 -585 -10
-650 -26 -700 -27 -83 -53 -128 -104 -183 -81 -86 -179 -118 -297 -98 -146 26
-268 117 -333 250 l-37 76 -6 580 c-4 319 -7 698 -8 843 l-1 262 -55 0 c-48 0
-55 3 -55 19 0 17 8 20 48 23 26 2 57 0 70 -4 13 -5 95 -8 183 -8z m-10943
-198 c2 -190 1 -203 -15 -200 -15 3 -19 17 -24 76 -10 104 -45 198 -95 249
l-41 43 -116 0 -117 0 0 -980 0 -980 60 0 c47 0 60 -3 60 -15 0 -13 -33 -15
-235 -15 -202 0 -235 2 -235 15 0 12 13 15 60 15 l60 0 0 980 0 980 -115 0
c-114 0 -114 0 -150 -32 -59 -51 -94 -141 -110 -280 -4 -41 -11 -58 -21 -58
-12 0 -14 33 -14 198 0 109 3 202 7 205 3 4 239 6 522 5 l516 -3 3 -203z m837
185 c183 -52 316 -183 354 -348 13 -57 13 -251 0 -308 -34 -149 -146 -272
-302 -332 l-57 -22 49 -17 c119 -40 211 -118 268 -227 46 -86 53 -140 53 -393
0 -126 4 -240 10 -254 5 -14 19 -30 31 -37 20 -10 26 -8 46 15 13 15 23 38 23
52 0 15 6 24 15 24 24 0 18 -52 -12 -98 -32 -49 -107 -92 -161 -92 -47 0 -122
43 -152 87 -25 36 -25 39 -31 307 -7 290 -15 350 -65 448 -61 120 -136 168
-262 168 l-82 0 0 -475 1 -475 59 0 c47 0 60 -3 60 -15 0 -13 -33 -15 -235
-15 -202 0 -235 2 -235 15 0 12 13 15 60 15 l60 0 0 980 0 980 -54 0 c-55 0
-73 10 -60 31 10 17 553 5 619 -14z m1543 -184 c2 -173 0 -203 -12 -203 -10 0
-17 15 -21 48 -18 152 -58 251 -120 300 -26 20 -39 22 -181 22 l-154 0 0 -480
0 -480 99 0 c98 0 99 0 125 30 28 34 56 116 56 167 0 23 5 33 15 33 13 0 15
-34 15 -245 0 -200 -3 -245 -14 -245 -9 0 -15 18 -19 53 -7 71 -42 144 -78
162 -18 10 -58 15 -114 15 l-85 0 0 -92 c-1 -51 -3 -270 -6 -485 l-6 -393 155
0 c144 0 156 2 188 23 60 40 109 159 124 300 4 38 11 57 18 54 9 -3 13 -62 15
-205 l2 -202 -420 0 c-367 0 -420 2 -420 15 0 12 13 15 55 15 l55 0 0 980 0
980 -55 0 c-48 0 -55 2 -55 20 0 20 5 20 418 18 l417 -3 3 -202z m3092 187 c0
-18 -7 -20 -60 -20 l-60 0 0 -788 c0 -434 5 -824 10 -868 17 -157 79 -282 155
-319 47 -22 124 -16 182 13 50 26 115 96 147 161 56 109 56 107 56 989 l0 812
-55 0 c-48 0 -55 2 -55 20 0 19 7 20 135 20 125 0 135 -1 135 -19 0 -14 -10
-20 -42 -24 -29 -4 -50 -14 -65 -32 l-23 -26 0 -787 c0 -853 1 -837 -55 -960
-30 -66 -110 -151 -172 -183 -40 -20 -62 -24 -128 -23 -44 0 -105 8 -136 17
-124 37 -239 145 -291 275 l-23 57 -3 833 -3 832 -54 0 c-53 0 -72 10 -60 30
4 6 93 10 236 10 222 0 229 -1 229 -20z m1435 -2 c133 -39 255 -128 307 -225
49 -90 60 -151 56 -301 -4 -113 -8 -147 -27 -195 -45 -113 -147 -212 -272
-262 l-69 -28 49 -17 c155 -52 276 -181 310 -331 6 -24 11 -145 11 -269 0
-238 8 -293 42 -311 19 -10 25 -8 45 15 13 15 23 38 23 52 0 18 5 24 21 24 18
0 20 -4 15 -27 -4 -16 -19 -48 -34 -73 -71 -118 -233 -118 -313 -2 -24 35 -24
41 -30 316 -7 290 -12 327 -57 428 -26 60 -96 136 -147 159 -28 13 -64 19
-122 19 l-81 0 0 -475 1 -475 59 0 c45 0 58 -3 58 -15 0 -13 -32 -15 -230 -15
-198 0 -230 2 -230 15 0 12 13 15 55 15 l55 0 0 980 0 980 -54 0 c-54 0 -73
10 -60 31 10 17 554 6 619 -13z m1545 -183 c0 -163 -3 -205 -13 -205 -9 0 -17
26 -24 83 -16 115 -47 193 -98 245 l-42 42 -157 0 -156 0 0 -480 0 -480 98 0
c89 0 100 2 120 23 29 30 53 92 61 152 4 35 10 50 21 50 13 0 15 -34 16 -242
2 -225 1 -243 -16 -243 -14 0 -18 11 -23 55 -7 72 -41 141 -78 160 -18 10 -58
15 -114 15 l-85 0 0 -485 0 -485 148 0 c129 0 151 2 180 20 59 36 107 142 124
277 7 56 15 83 24 83 14 0 22 -145 16 -317 l-3 -93 -419 0 c-367 0 -420 2
-420 15 0 12 13 15 55 15 l55 0 0 980 0 980 -55 0 c-48 0 -55 2 -55 20 0 20 7
20 420 20 l420 0 0 -205z m1950 187 c0 -16 -8 -18 -57 -18 l-58 1 -3 -982 -2
-983 60 0 c47 0 60 -3 60 -15 0 -13 -32 -15 -230 -15 -198 0 -230 2 -230 15 0
12 13 15 60 15 l60 0 -2 483 -3 482 -202 3 -203 2 0 -367 c0 -360 0 -367 18
-338 10 17 27 51 38 77 18 46 34 62 34 35 0 -7 -20 -52 -45 -99 -44 -85 -45
-88 -45 -182 l0 -96 55 0 c42 0 55 -3 55 -15 0 -13 -32 -15 -230 -15 -198 0
-230 2 -230 15 0 12 13 15 60 15 l60 0 0 985 0 985 -60 0 c-33 0 -60 4 -60 10
0 6 83 10 230 10 147 0 230 -4 230 -10 0 -5 -25 -10 -55 -10 l-55 0 0 -485 0
-485 200 0 200 0 1 228 c1 125 2 256 3 292 1 36 0 152 -2 258 l-5 192 -33 -6
c-39 -7 -74 2 -74 20 0 10 51 13 230 14 216 2 230 1 230 -16z m1824 -9 c8 -16
15 -23 16 -17 0 15 49 24 57 12 3 -6 0 -14 -7 -18 -7 -4 -10 -15 -7 -25 6 -13
3 -15 -13 -10 -11 4 -20 2 -20 -3 0 -6 23 -72 51 -149 29 -76 79 -210 111
-298 33 -88 77 -207 98 -265 73 -203 231 -624 236 -629 2 -2 4 312 4 698 l0
703 -55 -7 c-52 -6 -55 -5 -55 16 0 20 3 21 53 15 28 -3 89 -6 135 -6 45 0 82
-4 82 -9 0 -5 -20 -14 -45 -20 -25 -6 -54 -20 -65 -31 -20 -20 -20 -36 -20
-990 l0 -970 -22 0 c-21 0 -44 58 -277 683 -269 723 -395 1059 -410 1092 -6
13 -10 -303 -10 -862 l-1 -883 60 0 c47 0 60 -3 60 -15 0 -13 -22 -15 -135
-15 -113 0 -135 2 -135 15 0 9 9 15 25 15 41 0 82 27 94 61 20 58 10 1726 -10
1713 -5 -2 -6 -11 -2 -19 7 -19 -11 -20 -26 -1 -16 20 -4 45 20 39 15 -4 19 0
21 18 2 31 -1 69 -8 97 -5 25 -56 52 -99 52 -18 0 -25 5 -25 20 0 19 7 20 155
20 l154 0 15 -27z m-929 -133 c-3 -5 -10 -10 -16 -10 -5 0 -9 5 -9 10 0 6 7
10 16 10 8 0 12 -4 9 -10z m563 -2 c16 -16 15 -45 0 -51 -9 -3 -10 -8 -3 -16
6 -6 9 -26 7 -45 -4 -33 -4 -33 -35 -22 -23 8 -31 8 -34 -1 -5 -14 -33 -18
-33 -5 0 4 9 13 20 20 11 7 20 21 20 31 0 11 9 23 21 26 18 6 19 8 5 23 -10
12 -12 22 -5 35 12 20 21 21 37 5z m38 -45 c-11 -11 -17 4 -9 23 7 18 8 18 11
1 2 -10 1 -21 -2 -24z m2028 21 c3 -8 2 -12 -4 -9 -6 3 -10 10 -10 16 0 14 7
11 14 -7z m-1966 -93 c3 -8 -1 -12 -9 -9 -7 2 -15 10 -17 17 -3 8 1 12 9 9 7
-2 15 -10 17 -17z m-271 -46 c9 -24 0 -25 -27 -5 l-25 20 23 0 c12 0 25 -7 29
-15z m88 -11 c27 -17 33 -49 13 -57 -9 -3 -7 -9 7 -20 13 -10 25 -12 37 -6 11
6 19 5 24 -3 4 -6 3 -13 -2 -15 -6 -2 -9 -22 -8 -44 l2 -41 -22 21 c-27 25
-48 28 -39 4 5 -14 2 -15 -28 -8 -19 4 -45 9 -59 11 -57 8 -120 26 -120 34 0
19 45 50 72 50 15 0 27 3 27 8 -3 20 3 31 21 37 14 4 27 -2 45 -22 23 -26 24
-26 25 -7 0 11 -9 29 -20 39 -11 10 -17 22 -14 26 7 12 11 11 39 -7z m780
-164 c29 -45 35 -91 10 -70 -8 7 -15 25 -15 41 0 18 -7 32 -20 39 -11 6 -18
15 -15 21 9 14 13 12 40 -31z m-635 -20 c12 -7 12 -12 2 -22 -6 -6 -12 -8 -12
-4 0 5 -7 3 -15 -4 -9 -7 -19 -10 -23 -6 -4 4 1 13 10 20 10 7 15 16 11 19
-10 10 10 8 27 -3z m615 -61 c11 -17 0 -20 -21 -4 -17 13 -17 14 -2 15 9 0 20
-5 23 -11z m115 -91 c7 -18 15 -37 17 -43 2 -5 -7 4 -21 20 -25 29 -34 55 -18
55 4 0 14 -15 22 -32z m-3723 -320 c-3 -8 -6 -5 -6 6 -1 11 2 17 5 13 3 -3 4
-12 1 -19z m986 -295 c-4 -10 -17 -35 -29 -57 -21 -36 -23 -37 -33 -18 -9 16
-7 21 9 25 11 3 23 13 27 24 6 19 23 43 29 43 2 0 0 -8 -3 -17z m-127 -258
c-10 -25 -24 -45 -32 -45 -19 0 -18 5 12 56 33 55 43 50 20 -11z m-1180 -163
c-12 -12 -18 8 -10 35 l8 28 4 -28 c2 -16 1 -31 -2 -35z m19 -72 c3 -5 1 -10
-4 -10 -6 0 -11 5 -11 10 0 6 2 10 4 10 3 0 8 -4 11 -10z m681 -831 c-5 -32
-13 -46 -21 -38 -5 5 16 69 23 69 2 0 1 -14 -2 -31z m4438 -35 c9 -22 8 -24
-9 -24 -8 0 -15 9 -15 20 0 24 15 27 24 4z m-7086 -233 c3 -8 -1 -12 -9 -9 -7
2 -15 10 -17 17 -3 8 1 12 9 9 7 -2 15 -10 17 -17z m7328 -79 c-10 -10 -29 15
-21 28 6 9 10 8 17 -4 6 -10 7 -20 4 -24z m532 -104 c-6 -18 -28 -21 -28 -4 0
9 7 16 16 16 9 0 14 -5 12 -12z m-7068 -23 c0 -8 -7 -15 -15 -15 -8 0 -15 7
-15 15 0 8 7 15 15 15 8 0 15 -7 15 -15z m1707 -7 c-3 -8 -6 -5 -6 6 -1 11 2
17 5 13 3 -3 4 -12 1 -19z m13 -51 c0 -20 -1 -20 -16 -5 -9 9 -13 21 -9 27 10
16 25 3 25 -22z m-36 -82 c-4 -8 -1 -15 5 -15 16 0 13 -36 -4 -50 -9 -7 -17
-11 -20 -9 -7 8 7 89 16 89 5 0 6 -7 3 -15z m4936 -117 c0 -5 -7 -3 -15 6 -8
8 -15 18 -15 22 0 3 7 1 15 -6 8 -7 15 -17 15 -22z m-4930 -29 c0 -15 -7 -34
-15 -43 -8 -8 -16 -27 -16 -43 -1 -15 -5 -41 -9 -58 -9 -33 -3 121 6 168 5 23
8 26 20 16 8 -6 14 -24 14 -40z m4969 -92 c1 -5 -3 -5 -9 -2 -5 3 -10 16 -9
28 0 21 1 21 9 2 5 -11 9 -24 9 -28z m72 -69 c7 -13 16 -42 19 -66 6 -39 5
-43 -13 -40 -23 3 -53 76 -38 91 5 5 7 16 4 23 -9 23 15 16 28 -8z m546 -4
c-3 -3 -12 -4 -19 -1 -8 3 -5 6 6 6 11 1 17 -2 13 -5z m-5627 -29 c0 -8 -4
-15 -10 -15 -5 0 -10 7 -10 15 0 8 5 15 10 15 6 0 10 -7 10 -15z m5645 5 c3
-5 1 -10 -4 -10 -6 0 -11 5 -11 10 0 6 2 10 4 10 3 0 8 -4 11 -10z m7 -92 c-9
-9 -15 -9 -24 0 -9 9 -7 12 12 12 19 0 21 -3 12 -12z m-5665 -35 c-3 -10 -5
-4 -5 12 0 17 2 24 5 18 2 -7 2 -21 0 -30z m5808 -113 c3 -5 2 -10 -4 -10 -5
0 -13 5 -16 10 -3 6 -2 10 4 10 5 0 13 -4 16 -10z m-8735 -61 c0 -5 -7 -9 -15
-9 -8 0 -15 7 -15 15 0 9 6 12 15 9 8 -4 15 -10 15 -15z m2933 -121 c-12 -22
-23 -2 -22 40 l1 47 12 -40 c7 -22 11 -43 9 -47z m5301 -40 c18 -30 -4 -33
-32 -4 l-27 28 24 -4 c13 -2 29 -11 35 -20z m41 -99 c4 -6 5 -12 2 -15 -7 -7
-37 7 -37 17 0 13 27 11 35 -2z m545 -10 c0 -5 -4 -9 -10 -9 -5 0 -10 7 -10
16 0 8 5 12 10 9 6 -3 10 -10 10 -16z m-5890 -19 c0 -5 -2 -10 -4 -10 -3 0 -8
5 -11 10 -3 6 -1 10 4 10 6 0 11 -4 11 -10z m5940 -10 c0 -5 -4 -10 -10 -10
-5 0 -10 5 -10 10 0 6 5 10 10 10 6 0 10 -4 10 -10z m-563 -45 c12 -38 11 -40
-18 -25 -22 12 -26 60 -6 60 8 0 18 -16 24 -35z m513 -16 c0 -5 -4 -9 -10 -9
-5 0 -10 7 -10 16 0 8 5 12 10 9 6 -3 10 -10 10 -16z m195 -39 c3 -5 1 -10 -4
-10 -6 0 -11 5 -11 10 0 6 2 10 4 10 3 0 8 -4 11 -10z m-7 -58 c3 -16 -1 -19
-17 -15 -21 5 -27 23 -14 37 12 11 28 0 31 -22z m-6078 -32 c0 -11 -2 -20 -4
-20 -2 0 -6 9 -9 20 -3 11 -1 20 4 20 5 0 9 -9 9 -20z m6145 -20 c0 -8 -7 -16
-15 -17 -22 -4 -44 13 -35 26 10 17 50 9 50 -9z m120 -18 c-8 -9 -25 20 -18
31 3 5 10 2 15 -7 6 -10 7 -20 3 -24z m-815 8 c0 -5 -2 -10 -4 -10 -3 0 -8 5
-11 10 -3 6 -1 10 4 10 6 0 11 -4 11 -10z m570 -26 c0 -14 -3 -14 -15 -4 -8 7
-15 14 -15 16 0 2 7 4 15 4 8 0 15 -7 15 -16z m-534 -36 c51 -88 57 -121 15
-79 -22 22 -52 96 -43 106 7 6 11 2 28 -27z m690 5 c-4 -9 -1 -22 5 -29 9 -11
8 -14 -4 -14 -26 0 -40 26 -27 50 12 23 35 17 26 -7z m-6171 -33 c3 -5 1 -10
-4 -10 -6 0 -11 5 -11 10 0 6 2 10 4 10 3 0 8 -4 11 -10z m6195 -49 c0 -5 -7
-11 -15 -15 -15 -5 -20 5 -8 17 9 10 23 9 23 -2z m128 -149 c3 -9 -2 -13 -14
-10 -9 1 -19 9 -22 16 -3 9 2 13 14 10 9 -1 19 -9 22 -16z m-748 -32 c0 -5 -2
-10 -4 -10 -3 0 -8 5 -11 10 -3 6 -1 10 4 10 6 0 11 -4 11 -10z m548 -8 c2 -7
-2 -10 -12 -6 -9 3 -16 11 -16 16 0 13 23 5 28 -10z m-517 -15 c-1 -12 -15 -9
-19 4 -3 6 1 10 8 8 6 -3 11 -8 11 -12z m753 -29 c-9 -14 -24 2 -24 25 1 21 1
21 15 3 8 -10 12 -23 9 -28z m-711 -39 c-8 -8 -17 -8 -32 0 -26 14 -27 28 -3
34 24 5 50 -19 35 -34z m-5478 -52 c4 -18 5 -51 3 -72 l-4 -40 -8 53 c-6 33
-13 52 -22 52 -17 0 -18 7 -1 25 19 22 26 18 32 -18z m6055 -27 c0 -5 -4 -10
-10 -10 -5 0 -10 5 -10 10 0 6 5 10 10 10 6 0 10 -4 10 -10z m-542 -18 c6 -18
-15 -14 -22 4 -4 10 -1 14 6 12 6 -2 14 -10 16 -16z m42 -62 c0 -5 -7 -10 -15
-10 -8 0 -15 5 -15 10 0 6 7 10 15 10 8 0 15 -4 15 -10z m-7932 -18 c3 -9 -2
-13 -14 -10 -9 1 -19 9 -22 16 -3 9 2 13 14 10 9 -1 19 -9 22 -16z m-63 -75
c0 -26 -20 -25 -23 2 -3 16 1 22 10 19 7 -3 13 -12 13 -21z m2640 13 c-3 -5
-15 -10 -26 -10 -11 0 -19 -7 -20 -17 0 -13 -2 -14 -6 -4 -3 8 2 20 13 28 21
15 48 18 39 3z m-293 -15 c0 -5 -5 -11 -11 -13 -6 -2 -11 4 -11 13 0 9 5 15
11 13 6 -2 11 -8 11 -13z m-8272 -45 c0 -5 -2 -10 -4 -10 -3 0 -8 5 -11 10 -3
6 -1 10 4 10 6 0 11 -4 11 -10z m14570 -26 c0 -8 -7 -14 -15 -14 -15 0 -21 21
-9 33 10 9 24 -2 24 -19z m-8640 -4 c10 -19 10 -20 -9 -8 -22 13 -28 28 -11
28 5 0 14 -9 20 -20z m8075 -20 c3 -5 1 -10 -4 -10 -6 0 -11 5 -11 10 0 6 2
10 4 10 3 0 8 -4 11 -10z m-5548 -22 c-3 -8 -6 -5 -6 6 -1 11 2 17 5 13 3 -3
4 -12 1 -19z m6169 -55 c14 -19 19 -53 7 -53 -11 0 -73 44 -73 52 0 6 20 14
44 17 5 0 15 -7 22 -16z m-6302 -74 c19 -52 13 -78 -17 -66 -14 5 -32 92 -21
108 11 18 20 8 38 -42z m5724 27 c3 -12 -1 -17 -10 -14 -7 3 -15 13 -16 22 -3
12 1 17 10 14 7 -3 15 -13 16 -22z m-5565 -17 c4 -16 3 -18 -9 -8 -7 6 -11 15
-8 20 8 13 11 11 17 -12z m23 -126 l4 -48 -18 50 c-18 50 -18 75 0 57 6 -6 12
-32 14 -59z m-156 -47 c6 -30 13 -78 16 -107 13 -137 12 -135 26 -188 1 -7 -2
-16 -9 -18 -19 -7 -35 79 -37 205 -1 47 -5 75 -14 81 -7 4 -15 24 -19 44 -4
29 -2 37 10 37 11 0 19 -17 27 -54z m67 -28 c-3 -8 -6 -5 -6 6 -1 11 2 17 5
13 3 -3 4 -12 1 -19z m5803 -128 c0 -11 -4 -20 -10 -20 -5 0 -10 9 -10 20 0
11 5 20 10 20 6 0 10 -9 10 -20z m-5695 -200 c3 -5 1 -10 -4 -10 -6 0 -11 5
-11 10 0 6 2 10 4 10 3 0 8 -4 11 -10z m5830 -130 c3 -5 1 -10 -4 -10 -6 0
-11 5 -11 10 0 6 2 10 4 10 3 0 8 -4 11 -10z m-13210 -20 c3 -5 -3 -10 -14
-10 -11 0 -23 5 -26 10 -3 6 3 10 14 10 11 0 23 -4 26 -10z m13355 -300 c0 -5
-4 -10 -10 -10 -5 0 -10 5 -10 10 0 6 5 10 10 10 6 0 10 -4 10 -10z"/>
<path d="M5472 6463 c-6 -32 -47 -226 -91 -431 -45 -205 -81 -382 -81 -393 0
-18 9 -19 195 -19 107 0 195 3 195 8 0 18 -194 878 -200 885 -3 4 -11 -19 -18
-50z"/>
<path d="M3012 6503 l3 -488 81 2 c94 1 139 20 195 80 49 52 73 95 99 178 19
59 22 94 23 220 0 208 -29 315 -111 406 -63 70 -106 89 -210 89 l-82 0 2 -487z"/>
<path d="M9087 6893 c-3 -54 -5 -273 -4 -488 l2 -390 80 1 c96 0 140 20 204
89 81 88 121 216 121 392 0 186 -44 330 -127 417 -53 56 -103 76 -194 76 l-76
0 -6 -97z"/>
<path d="M14215 6580 c-8 -13 9 -20 24 -11 10 6 9 10 -3 14 -8 3 -18 2 -21 -3z"/>
</g>
</svg>
